<?xml version="1.0" encoding="UTF-8"?>
<svg width="15px" height="15px" viewBox="0 0 15 15" version="1.1" xmlns="http://www.w3.org/2000/svg" xmlns:xlink="http://www.w3.org/1999/xlink">
    <!-- Generator: Sketch 51.2 (57519) - http://www.bohemiancoding.com/sketch -->
    <title>Group 6</title>
    <desc>Created with Sketch.</desc>
    <defs></defs>
    <g id="Page-1" stroke="none" stroke-width="1" fill="none" fill-rule="evenodd">
        <g id="SP-Funnel---Pricing---Monthly" transform="translate(-1104.000000, -2399.000000)" fill="#292533">
            <g id="Group-10" transform="translate(1021.000000, 2396.000000)">
                <g id="Group-6" transform="translate(83.000000, 3.000000)">
                    <path d="M0.767500892,4.68458901 L3.50069744,4.68458901 L3.50069744,14.0435623 L0.767500892,14.0435623 L0.767500892,4.68458901 Z M2.06442945,3.51394545 L2.0446416,3.51394545 C1.05524919,3.51394545 0.413793103,2.79850315 0.413793103,1.89251149 C0.413793103,0.967994195 1.07421254,0.266666667 2.08339281,0.266666667 C3.09174858,0.266666667 3.71176782,0.966229849 3.73155567,1.88986497 C3.73155567,2.79585663 3.09174858,3.51394545 2.06442945,3.51394545 L2.06442945,3.51394545 Z M14.4367816,14.0444444 L11.3375099,14.0444444 L11.3375099,9.20043255 C11.3375099,7.93274996 10.8527076,7.06822043 9.78663726,7.06822043 C8.97121301,7.06822043 8.51774148,7.65133678 8.3066711,8.21504532 C8.22751971,8.41618076 8.23988711,8.69759394 8.23988711,8.9798893 L8.23988711,14.0444444 L5.16947265,14.0444444 C5.16947265,14.0444444 5.20904835,5.46442993 5.16947265,4.68458901 L8.23988711,4.68458901 L8.23988711,6.15340704 C8.42127572,5.5111851 9.4024232,4.59460736 10.9681367,4.59460736 C12.9106438,4.59460736 14.4367816,5.94168552 14.4367816,8.8396238 L14.4367816,14.0444444 L14.4367816,14.0444444 Z" id="Shape"></path>
                </g>
            </g>
        </g>
    </g>
</svg>